<svg
    width="81"
    height="20"
    viewBox="0 0 81 20"
    fill="none"
    xmlns="http://www.w3.org/2000/svg"
  >
    <g clip-path="url(#clip0_1736_15700)">
      <path
        d="M19.7441 7.7124H10.2005C10.1681 7.7124 10.1369 7.69952 10.1139 7.67659C10.091 7.65366 10.078 7.62255 10.078 7.59008V0.41242C10.078 0.0283973 9.59778 -0.145554 9.35181 0.149609L0.0960335 11.2564C0.0461085 11.3164 0.0143027 11.3893 0.00433879 11.4667C-0.00562515 11.5441 0.00666496 11.6228 0.0397707 11.6934C0.0728764 11.7641 0.125428 11.8239 0.191275 11.8658C0.257122 11.9077 0.333539 11.93 0.411584 11.93H9.95566C9.98812 11.9301 10.0192 11.943 10.0422 11.966C10.0651 11.989 10.078 12.0201 10.078 12.0526V19.2302C10.078 19.6145 10.5584 19.7884 10.8044 19.4932L20.0601 8.38649C20.1102 8.32649 20.1422 8.25344 20.1522 8.17592C20.1622 8.0984 20.1499 8.01963 20.1167 7.94886C20.0835 7.87809 20.0309 7.81825 19.9649 7.77636C19.8989 7.73448 19.8223 7.71229 19.7441 7.7124Z"
        fill="#CBF200"
      />
      <path
        d="M27.2227 19.0868V6.96561C27.2227 6.81868 27.281 6.67777 27.3849 6.57388C27.4888 6.46999 27.6297 6.41162 27.7766 6.41162H30.879C31.0259 6.41162 31.1668 6.46999 31.2707 6.57388C31.3746 6.67777 31.4329 6.81868 31.4329 6.96561V19.0868C31.4329 19.2337 31.3746 19.3747 31.2707 19.4785C31.1668 19.5824 31.0259 19.6408 30.879 19.6408H27.7766C27.6297 19.6408 27.4888 19.5824 27.3849 19.4785C27.281 19.3747 27.2227 19.2337 27.2227 19.0868Z"
        fill="#131318"
      />
      <path
        d="M27.2227 3.63867V0.574241C27.2226 0.498969 27.2374 0.424429 27.2662 0.354879C27.295 0.285329 27.3372 0.222131 27.3904 0.168895C27.4436 0.11566 27.5068 0.07343 27.5764 0.0446181C27.6459 0.0158061 27.7204 0.000976557 27.7957 0.000976563L30.8619 0.000976563C31.0139 0.000976563 31.1598 0.0613739 31.2673 0.168882C31.3748 0.27639 31.4352 0.422202 31.4352 0.574241V3.63867C31.435 3.79057 31.3746 3.93622 31.2672 4.04359C31.1597 4.15096 31.014 4.21127 30.8621 4.21127H27.7959C27.644 4.21127 27.4983 4.15096 27.3908 4.0436C27.2833 3.93623 27.2228 3.79059 27.2227 3.63867Z"
        fill="#131318"
      />
      <path
        d="M45.1006 19.3934L42.1273 14.341C42.1232 14.3341 42.1174 14.3282 42.1106 14.3241C42.1037 14.3199 42.0958 14.3175 42.0878 14.3171C42.0797 14.3167 42.0717 14.3183 42.0645 14.3218C42.0572 14.3253 42.0509 14.3305 42.0462 14.337L38.3469 19.4348C38.2993 19.4987 38.2375 19.5507 38.1664 19.5867C38.0953 19.6226 38.0168 19.6416 37.9371 19.642H35.5218C35.3748 19.642 35.2339 19.5836 35.13 19.4797C35.0261 19.3758 34.9678 19.2349 34.9678 19.088V0.554963C34.9678 0.408036 35.0261 0.267128 35.13 0.163235C35.2339 0.0593428 35.3748 0.000976563 35.5218 0.000976563L38.6241 0.000976562C38.771 0.000976563 38.9119 0.0593428 39.0158 0.163235C39.1197 0.267128 39.1781 0.408036 39.1781 0.554963V12.4238C39.1783 12.4341 39.1817 12.444 39.188 12.4522C39.1942 12.4604 39.2029 12.4664 39.2127 12.4694C39.2226 12.4723 39.2332 12.472 39.2429 12.4686C39.2526 12.4651 39.2609 12.4587 39.2667 12.4501L44.4737 4.4373C44.5197 4.36675 44.5825 4.30875 44.6564 4.26856C44.7304 4.22836 44.8132 4.20722 44.8974 4.20706H48.6495C48.7432 4.20671 48.8351 4.23235 48.9151 4.28113C48.9952 4.32991 49.0601 4.39992 49.1027 4.48338C49.1453 4.56684 49.1639 4.66049 49.1565 4.7539C49.1491 4.84732 49.116 4.93685 49.0607 5.01256L44.9818 10.5967C44.9763 10.6043 44.9731 10.6132 44.9726 10.6225C44.972 10.6319 44.9742 10.6411 44.9787 10.6493L49.659 18.8826C49.703 18.9593 49.726 19.0461 49.7257 19.1345C49.7255 19.2228 49.7021 19.3096 49.6578 19.386C49.6135 19.4624 49.5499 19.5259 49.4733 19.57C49.3968 19.6141 49.31 19.6373 49.2216 19.6373H45.5374C45.4496 19.6386 45.3629 19.6168 45.2863 19.5739C45.2096 19.5311 45.1456 19.4688 45.1006 19.3934Z"
        fill="#131318"
      />
      <path
        d="M56.916 19.8486C52.9198 19.8486 50.1299 16.5674 50.1299 11.8734C50.1299 7.17936 52.9198 3.89844 56.916 3.89844C58.5824 3.89844 60.1154 4.60754 61.3446 5.94154L61.4301 6.03416C61.4363 6.04145 61.4446 6.04671 61.4539 6.04927C61.4631 6.05183 61.473 6.05157 61.4821 6.04852C61.4912 6.04548 61.4992 6.03979 61.505 6.03218C61.5109 6.02457 61.5143 6.01539 61.515 6.0058L61.5252 5.86597V5.86265C61.5252 5.53137 61.5575 5.04918 61.5852 4.67247C61.5946 4.54584 61.6516 4.42748 61.7447 4.34115C61.8378 4.25482 61.9601 4.20694 62.0871 4.20712H65.0122C65.1591 4.20712 65.3 4.26548 65.4039 4.36938C65.5078 4.47327 65.5661 4.61418 65.5661 4.7611V19.0823C65.5661 19.2292 65.5078 19.3701 65.4039 19.474C65.3 19.5779 65.1591 19.6363 65.0122 19.6363H62.0911C61.963 19.6374 61.8392 19.5896 61.7451 19.5027C61.6509 19.4158 61.5933 19.2963 61.5841 19.1685C61.5564 18.7508 61.5198 18.2139 61.5198 17.983C61.5198 17.9819 61.5198 17.9808 61.5198 17.9797L61.5054 17.8024C61.5047 17.7931 61.5013 17.7842 61.4957 17.7768C61.4901 17.7694 61.4824 17.7638 61.4737 17.7606C61.4649 17.7575 61.4554 17.7569 61.4464 17.759C61.4373 17.7611 61.429 17.7658 61.4226 17.7725L61.3357 17.8611C60.1019 19.163 58.5678 19.8486 56.916 19.8486ZM61.5119 10.5263C61.3988 9.80371 61.0647 9.10812 60.4896 8.61175C59.8274 8.03235 58.9763 7.71492 58.0964 7.71917C55.8554 7.71917 54.2925 9.44472 54.2925 11.9159C54.2925 14.585 55.6784 16.1129 58.0964 16.1129C58.5847 16.1143 59.0685 16.0201 59.5206 15.8357C60.6264 15.3801 61.3585 14.3677 61.515 13.2448L61.5593 12.941C61.6616 12.2327 61.6582 11.5131 61.5493 10.8058L61.5119 10.5263Z"
        fill="#131318"
      />
      <path
        d="M73.7226 20.0011C71.3424 20.0011 69.8279 19.5041 68.976 19.0853C68.644 18.9249 68.3293 18.7306 68.0372 18.5056C67.9471 18.4319 67.8854 18.3291 67.8627 18.2149C67.84 18.1007 67.8576 17.9822 67.9126 17.8796L69.1092 15.6293C69.1435 15.5654 69.1911 15.5096 69.2489 15.4657C69.3067 15.4219 69.3733 15.391 69.4441 15.3753C69.515 15.3595 69.5883 15.3593 69.6593 15.3745C69.7302 15.3898 69.797 15.4201 69.8551 15.4636C71.3557 16.5589 73.0226 16.6876 73.7221 16.6876C75.1264 16.6876 75.8998 16.1722 75.8998 15.2382C75.8998 14.0232 74.7253 13.738 73.2433 13.379C73.1008 13.3467 72.9579 13.3099 72.8154 13.2731C70.8447 12.7807 68.2253 11.796 68.2253 8.91522C68.2253 7.45625 68.8697 6.20468 70.0898 5.29348C71.2591 4.41907 72.8797 3.94043 74.6566 3.94043C77.2302 3.94043 79.0302 4.79645 79.8269 5.27C79.9377 5.33594 80.0191 5.44188 80.0542 5.56599C80.0893 5.69011 80.0755 5.82296 80.0157 5.93722L78.9061 8.08181C78.7732 8.33487 78.4547 8.43148 78.2108 8.28878C76.7469 7.45137 75.49 7.26257 74.6566 7.26257C74.0674 7.26257 72.6864 7.26257 72.6864 8.61097C72.6864 9.62787 73.5336 9.82132 74.6061 10.0697C74.956 10.1526 75.3566 10.2399 75.7664 10.3689C77.1427 10.7968 80.3607 11.8046 80.3607 14.8327C80.3607 16.273 79.7163 17.5847 78.5469 18.5236C77.3273 19.4811 75.6609 20.0011 73.7226 20.0011Z"
        fill="#131318"
      />
    </g>
    <defs>
      <clipPath id="clip0_1736_15700">
        <rect width="80.3612" height="20" fill="#131318" />
      </clipPath>
    </defs>
  </svg>